<svg width="670" height="1365" viewBox="0 0 670 1365" fill="none" xmlns="http://www.w3.org/2000/svg">
<path d="M209.946 3.39447C197.812 7.03451 183.454 22.4036 180.219 35.3459C178.803 40.806 177.994 64.264 177.994 95.0021V145.76H333.707H489.42V91.5643V37.3682L484.162 26.8525C478.095 14.5168 469.197 7.03451 455.85 2.99002C441.695 -1.25669 223.899 -0.852241 209.946 3.39447Z" fill="#00665D"/>
<path d="M209.743 200.325C211.361 215.491 207.317 236.725 200.239 251.69C193.768 265.239 174.152 286.674 158.58 297.19C129.258 317.21 99.9355 340.87 81.7353 358.868C45.7393 394.662 17.6302 441.578 7.31672 483.236C0.238874 511.75 -0.165575 519.232 0.0366497 593.853C0.238874 666.654 0.238874 669.889 5.09226 688.494C7.72117 699.212 13.9901 717.21 19.0457 728.534C23.8991 739.859 31.7859 757.655 36.437 767.968C52.0083 803.56 55.2439 818.12 55.4461 851.285C55.4461 875.147 54.6372 884.247 50.7949 899.818C41.8971 936.623 45.1327 963.519 60.7039 981.315C73.0396 995.268 83.9597 999.515 107.216 999.515C159.389 999.11 213.383 965.541 314.495 870.091C442.706 749.363 489.622 673.125 490.026 585.36C490.228 534.399 474.657 488.09 443.312 446.229C432.19 431.669 388.712 385.158 387.296 386.573C386.892 386.978 388.105 393.449 389.925 401.336C394.172 419.738 394.778 498.201 390.532 516.603C382.038 556.037 366.467 593.449 346.245 623.176C316.72 666.856 264.95 716.199 200.441 762.306L179.814 777.068L169.501 767.159C131.482 729.95 104.384 677.169 97.3065 626.007C87.1953 553.813 111.867 488.696 171.927 428.434C198.014 402.144 212.979 390.415 267.579 351.791C288.611 337.028 311.26 320.446 318.135 314.986C338.762 298.808 365.254 271.305 380.825 250.274L395.385 230.456H412.372H429.157L427.741 244.005C426.123 261.599 429.561 288.899 436.032 309.93C445.537 339.859 458.479 362.711 501.553 425.602C539.571 481.012 558.378 541.275 555.547 598.504C551.502 681.821 514.495 752.397 416.619 864.429C405.901 876.563 384.465 901.234 369.096 919.03C301.755 996.279 254.637 1038.75 209.137 1063.01C166.669 1085.66 120.967 1092.94 83.5553 1083.03C56.255 1075.75 30.1681 1053.31 17.0235 1025.8C12.7768 1016.7 8.53007 1009.22 7.9234 1009.22C7.31672 1009.02 5.29448 1015.69 3.47446 1023.58C0.643323 1035.92 0.0366497 1049.06 0.0366497 1102.04C0.238874 1169.18 1.65444 1183.94 10.1479 1209.02C22.6858 1246.03 43.7171 1279.19 72.433 1306.49C100.947 1333.79 126.629 1348.15 166.467 1359.07C182.847 1363.72 185.274 1363.72 317.529 1364.53C459.288 1365.34 483.959 1364.33 509.035 1356.64C543.211 1346.13 572.534 1329.54 596.598 1306.9C618.236 1286.67 630.976 1269.28 644.121 1242.59C664.95 1200.53 669.399 1175.05 669.399 1101.03C669.399 1034.3 666.972 1019.74 648.166 970.799C632.594 930.354 628.348 911.547 628.145 884.854V862.811L617.427 874.54C594.778 899.414 567.882 944.712 552.513 983.741C545.233 1002.55 540.582 1015.69 514.495 1095.98C497.104 1149.36 477.084 1189.2 450.188 1224.19C416.214 1268.27 375.365 1300.02 329.258 1318.22C309.035 1326.31 292.453 1329.95 263.939 1332.98C215.608 1338.04 168.287 1327.93 129.662 1304.67C94.4754 1283.44 62.7262 1247.64 50.3905 1215.49L46.5482 1205.18L54.2328 1210.03C103.98 1241.38 162.827 1249.06 226.528 1232.68C279.106 1219.13 322.18 1192.44 372.332 1142.49C412.372 1102.65 428.752 1079.39 478.297 992.842C517.529 924.287 536.942 893.954 580.42 833.084C599.025 806.997 619.45 777.675 625.516 768.17C641.897 742.892 656.457 711.75 662.523 688.494C667.579 669.283 667.983 665.238 668.995 605.178C670.208 519.03 666.972 494.965 648.368 449.869C626.528 397.493 590.329 355.431 530.875 313.57C495.688 288.899 478.702 272.721 470.006 255.734C461.512 239.354 458.681 226.816 459.288 206.391L459.692 189H334.111H208.53L209.743 200.325Z" fill="#00FFEA"/>
<path d="M277.691 418.561C257.468 426.448 246.75 433.121 225.112 450.512C175.567 490.553 155.749 540.907 173.747 581.554C186.892 611.281 225.921 627.256 258.479 616.134C271.826 611.685 289.622 595.709 296.902 581.756C301.553 572.656 302.16 569.016 302.362 551.22C302.362 532.009 301.958 529.987 293.869 509.966C282.342 481.655 279.915 468.713 282.949 451.523C284.364 444.041 288.409 432.312 292.049 425.234C300.138 410.472 299.329 410.068 277.691 418.561Z" fill="#00665D"/>
</svg>
